# xmcd
#
# Track frame offsets: 
#        150
#        16892
#        33471
#        49003
#        66639
#        84384
#        104257
#        120363
#        141197
#        155412
#
# Disc length: 2287 seconds
#
# Revision: 0
# Processed by: cddbd v1.5.2PL0 Copyright (c) Steve Scherf et al.
# Submitted via: ExactAudioCopy v0.99pb5
#
DISCID=7e08ed0a
DTITLE=GLORIA TURRINI - TOO HEAVY
DYEAR=2010
DGENRE=Rhythmic Soul
TTITLE0=DAMN, I'M SO SURE
TTITLE1=VOODOO WOMAN
TTITLE2=HURRY UP
TTITLE3=AT LAST
TTITLE4=IT' PROBABLY ME
TTITLE5=TOO HEAVY
TTITLE6=I STILL HAVEN'T FOUND WHAT I'M LOOKING FOR
TTITLE7=COME TI VORREI
TTITLE8=MOVIN' ON UP
TTITLE9=I HEARD IT THROUGH THE GRAPEVINE
EXTD=
EXTT0=
EXTT1=
EXTT2=
EXTT3=
EXTT4=
EXTT5=
EXTT6=
EXTT7=
EXTT8=
EXTT9=
PLAYORDER=
